<svg xmlns="http://www.w3.org/2000/svg" viewBox="0 0 200 200">
  <ellipse cx="100" cy="168" rx="64" ry="8" fill="rgba(0,0,0,0.25)"/>
  <path d="M 32 92 Q 30 162 100 170 Q 170 162 168 92 Z" fill="#ddd5c5"/>
  <path d="M 40 92 Q 38 157 100 164 Q 162 157 160 92 Z" fill="#f5f0e8"/>
  <ellipse cx="100" cy="92" rx="68" ry="14" fill="#ddd5c5"/>
  <ellipse cx="100" cy="92" rx="60" ry="10" fill="#f5f0e8"/>
  <ellipse cx="100" cy="91" rx="60" ry="10" fill="none" stroke="#ccc4b4" stroke-width="1.5"/>
  <!-- Back leaves -->
  <ellipse cx="78" cy="118" rx="18" ry="12" fill="#2a7830" transform="rotate(-30,78,118)"/>
  <ellipse cx="122" cy="116" rx="16" ry="11" fill="#2a7030" transform="rotate(25,122,116)"/>
  <ellipse cx="100" cy="108" rx="20" ry="13" fill="#349040" transform="rotate(5,100,108)"/>
  <!-- Arugula leaves (darker) -->
  <path d="M 68 130 Q 62 118 72 114 Q 78 118 74 128 Q 80 120 86 122 Q 84 132 76 134 Z" fill="#1e6028"/>
  <path d="M 126 128 Q 132 116 122 113 Q 116 117 120 127 Q 114 119 108 121 Q 110 131 118 133 Z" fill="#1e6028"/>
  <!-- Lettuce layers -->
  <ellipse cx="86" cy="125" rx="22" ry="14" fill="#4ab050" transform="rotate(-15,86,125)"/>
  <ellipse cx="115" cy="122" rx="20" ry="13" fill="#3aa040" transform="rotate(20,115,122)"/>
  <ellipse cx="100" cy="130" rx="24" ry="15" fill="#56c058" transform="rotate(-5,100,130)"/>
  <!-- Radicchio (purple) -->
  <ellipse cx="80" cy="138" rx="12" ry="8" fill="#8b2060" transform="rotate(10,80,138)"/>
  <ellipse cx="79" cy="137" rx="12" ry="8" fill="#a02878" transform="rotate(10,79,137)"/>
  <!-- Cherry tomatoes -->
  <circle cx="116" cy="112" r="9" fill="#d02020"/>
  <circle cx="116" cy="111" r="9" fill="#e83030"/>
  <ellipse cx="113" cy="108" rx="3" ry="2" fill="rgba(255,255,255,0.25)"/>
  <path d="M 116 102 Q 118 97 121 96" fill="none" stroke="#3a6820" stroke-width="1.8" stroke-linecap="round"/>
  <circle cx="130" cy="128" r="7.5" fill="#e02828"/>
  <circle cx="130" cy="127" r="7.5" fill="#f03838"/>
  <ellipse cx="127" cy="124" rx="2.5" ry="1.8" fill="rgba(255,255,255,0.25)"/>
  <!-- Olives -->
  <ellipse cx="86" cy="112" rx="7" ry="5" fill="#2a4018"/>
  <ellipse cx="86" cy="111" rx="7" ry="5" fill="#3a5828"/>
  <ellipse cx="86" cy="111" rx="4" ry="3" fill="#1a3010"/>
  <circle cx="86" cy="111" r="1.5" fill="#d4a020"/>
  <!-- Croutons -->
  <rect x="104" y="118" width="12" height="10" rx="2" fill="#d4a840" transform="rotate(-10,104,118)"/>
  <rect x="104" y="118" width="12" height="10" rx="2" fill="none" stroke="#c09030" stroke-width="1" transform="rotate(-10,104,118)"/>
  <rect x="88" y="142" width="10" height="8" rx="2" fill="#d4a840" transform="rotate(15,88,142)"/>
  <!-- Dressing drizzle -->
  <path d="M 95 115 Q 102 110 110 116 Q 106 122 98 120 Z" fill="#e8d040" opacity="0.6"/>
  <!-- Parmesan shavings -->
  <ellipse cx="112" cy="136" rx="7" ry="2.5" fill="#f8f0d8" opacity="0.9" transform="rotate(-20,112,136)"/>
  <ellipse cx="94" cy="135" rx="5" ry="2" fill="#f0e8d0" opacity="0.85" transform="rotate(10,94,135)"/>
  <ellipse cx="72" cy="91" rx="15" ry="5" fill="rgba(255,255,255,0.3)" transform="rotate(-10,72,91)"/>
</svg>
