<svg xmlns="http://www.w3.org/2000/svg" viewBox="0 0 200 200">
  <!-- Shadow -->
  <ellipse cx="100" cy="168" rx="52" ry="7" fill="rgba(0,0,0,0.25)"/>
  <!-- Glass cup outer -->
  <path d="M 62 80 L 58 162 Q 58 168 100 168 Q 142 168 142 162 L 138 80 Z" fill="#e8e4dc" opacity="0.6"/>
  <path d="M 62 80 L 58 162 Q 58 168 100 168 Q 142 168 142 162 L 138 80 Z" fill="none" stroke="#d0ccc4" stroke-width="2"/>
  <!-- Ladyfinger layer bottom -->
  <rect x="60" y="138" width="80" height="28" rx="0" fill="#d4a840" clip-path="url(#cup)"/>
  <rect x="62" y="140" width="76" height="26" rx="0" fill="#c89830"/>
  <!-- Ladyfinger lines -->
  <line x1="78" y1="140" x2="78" y2="166" stroke="#b88820" stroke-width="1.5" opacity="0.6"/>
  <line x1="94" y1="140" x2="94" y2="166" stroke="#b88820" stroke-width="1.5" opacity="0.6"/>
  <line x1="110" y1="140" x2="110" y2="166" stroke="#b88820" stroke-width="1.5" opacity="0.6"/>
  <line x1="126" y1="140" x2="126" y2="166" stroke="#b88820" stroke-width="1.5" opacity="0.6"/>
  <!-- Mascarpone cream layer 1 -->
  <rect x="60" y="116" width="80" height="26" fill="#f8f0e0"/>
  <rect x="60" y="116" width="80" height="3" fill="#f0e8d8"/>
  <!-- Coffee soaked ladyfinger layer -->
  <rect x="60" y="96" width="80" height="22" fill="#7a4818"/>
  <rect x="62" y="98" width="76" height="20" fill="#8a5420"/>
  <line x1="78" y1="98" x2="78" y2="116" stroke="#6a3810" stroke-width="1.5" opacity="0.6"/>
  <line x1="94" y1="98" x2="94" y2="116" stroke="#6a3810" stroke-width="1.5" opacity="0.6"/>
  <line x1="110" y1="98" x2="110" y2="116" stroke="#6a3810" stroke-width="1.5" opacity="0.6"/>
  <line x1="126" y1="98" x2="126" y2="116" stroke="#6a3810" stroke-width="1.5" opacity="0.6"/>
  <!-- Top cream layer -->
  <rect x="60" y="80" width="80" height="18" fill="#faf4e8"/>
  <!-- Cream swirl texture -->
  <path d="M 68 88 Q 76 84 84 88 Q 92 84 100 88 Q 108 84 116 88 Q 124 84 132 88" fill="none" stroke="#ece4d0" stroke-width="2.5" stroke-linecap="round"/>
  <!-- Cocoa powder dusting -->
  <rect x="60" y="80" width="80" height="18" fill="#4a2810" opacity="0.22"/>
  <!-- Cocoa texture dots -->
  <circle cx="72" cy="86" r="1.5" fill="#3a1808" opacity="0.4"/>
  <circle cx="82" cy="83" r="1.2" fill="#3a1808" opacity="0.35"/>
  <circle cx="92" cy="87" r="1.4" fill="#3a1808" opacity="0.4"/>
  <circle cx="103" cy="84" r="1.3" fill="#3a1808" opacity="0.35"/>
  <circle cx="114" cy="86" r="1.5" fill="#3a1808" opacity="0.4"/>
  <circle cx="124" cy="83" r="1.2" fill="#3a1808" opacity="0.35"/>
  <circle cx="78" cy="90" r="1" fill="#3a1808" opacity="0.3"/>
  <circle cx="108" cy="89" r="1" fill="#3a1808" opacity="0.3"/>
  <!-- Glass rim -->
  <rect x="60" y="78" width="80" height="5" rx="2" fill="#e0dcd4" opacity="0.8"/>
  <!-- Glass shine -->
  <line x1="65" y1="86" x2="65" y2="158" stroke="rgba(255,255,255,0.25)" stroke-width="3" stroke-linecap="round"/>
  <!-- Cocoa sifter decoration -->
  <rect x="84" y="72" width="32" height="10" rx="3" fill="#c09040" opacity="0.0"/>
  <!-- Coffee bean garnish -->
  <ellipse cx="88" cy="82" rx="5" ry="3.5" fill="#3a1a08" transform="rotate(-20,88,82)"/>
  <line x1="85" y1="83" x2="93" y2="80" stroke="#6a3818" stroke-width="1" opacity="0.7"/>
  <ellipse cx="114" cy="83" rx="4.5" ry="3" fill="#3a1a08" transform="rotate(15,114,83)"/>
  <line x1="111" y1="85" x2="118" y2="81" stroke="#6a3818" stroke-width="1" opacity="0.7"/>
</svg>
